<?xml version="1.0" encoding="utf-8"?>
<!-- Generator: Adobe Illustrator 22.1.0, SVG Export Plug-In . SVG Version: 6.00 Build 0)  -->
<svg version="1.1" id="Layer_1" xmlns="http://www.w3.org/2000/svg" xmlns:xlink="http://www.w3.org/1999/xlink" x="0px" y="0px"
	 viewBox="0 0 52 52" style="enable-background:new 0 0 52 52;" xml:space="preserve">
<g>
	<path d="M20.8,43.2c-0.5,0-1-0.2-1.4-0.5L1.7,28.5c-0.5-0.3-0.8-0.9-0.8-1.5c-0.1-0.6,0.1-1.2,0.5-1.7c0.4-0.5,1-0.9,1.8-0.9
		c0.5,0,1,0.2,1.4,0.5l16,12.8L47.3,7.7c0.4-0.5,1-0.8,1.7-0.8c0.6,0,1.1,0.2,1.4,0.6c0.9,0.8,1.1,2.2,0.2,3.2L22.5,42.4
		C22,42.9,21.4,43.2,20.8,43.2L20.8,43.2z"/>
	<path d="M48.9,7.4c0.4,0,0.8,0.1,1.1,0.4c0.8,0.7,0.9,1.7,0.2,2.5L22.1,42.1c-0.4,0.4-0.9,0.6-1.4,0.6c-0.4,0-0.8-0.1-1.1-0.4
		L2,28.1c-0.8-0.6-0.9-1.7-0.3-2.5C2,25.2,2.5,25,3.1,25c0.4,0,0.8,0.1,1.1,0.4l16.3,13.1L47.6,8C48,7.6,48.4,7.4,48.9,7.4
		 M48.9,6.4c-0.8,0-1.6,0.4-2.1,1L20.4,37.1L4.8,24.6C4.3,24.2,3.7,24,3.1,24c-0.9,0-1.7,0.4-2.2,1.1c-0.4,0.6-0.6,1.3-0.6,2
		c0.1,0.8,0.4,1.4,1,1.9L19,43.1c0.5,0.4,1.1,0.6,1.7,0.6c0.8,0,1.5-0.3,2.1-0.9l0,0l0,0L51,10.9c1-1.2,0.9-2.8-0.3-3.9
		C50.2,6.6,49.6,6.4,48.9,6.4L48.9,6.4z"/>
</g>
</svg>
